<svg width="48" height="48" viewBox="0 0 48 48" fill="none" xmlns="http://www.w3.org/2000/svg">
<g id="Icon/Clock">
<g id="clock">
<path id="Combined Shape" fill-rule="evenodd" clip-rule="evenodd" d="M24 0C10.7656 0 0 10.7656 0 24C0 37.2344 10.7656 48 24 48C37.2344 48 48 37.2344 48 24C48 10.7656 37.2344 0 24 0ZM24 44.282C12.818 44.282 3.71803 35.182 3.71803 24C3.71803 12.818 12.818 3.71803 24 3.71803C35.1839 3.71803 44.282 12.818 44.282 24C44.282 35.182 35.182 44.282 24 44.282ZM25.859 23.2192L32.5515 28.2385C33.3732 28.8539 33.5406 30.0195 32.9232 30.8394C32.5588 31.3302 32.0011 31.5849 31.4341 31.5849C31.0456 31.5849 30.6551 31.4641 30.3205 31.2131L22.8845 25.636C22.416 25.2865 22.1408 24.7343 22.1408 24.1488V12.9946C22.1408 11.9665 22.9718 11.1355 23.9999 11.1355C25.028 11.1355 25.859 11.9665 25.859 12.9946V23.2192Z" fill="#252525"/>
</g>
</g>
</svg>
