<svg width="10" height="7" viewBox="0 0 10 7" fill="none" xmlns="http://www.w3.org/2000/svg">
<path fill-rule="evenodd" clip-rule="evenodd" d="M9.28262 1.15136L8.84963 0.718232C8.69959 0.57585 8.52434 0.504639 8.3243 0.504639C8.12013 0.504639 7.94696 0.57585 7.80452 0.718232L4.99818 3.52465L2.19186 0.718313C2.04944 0.575931 1.87623 0.50472 1.67214 0.50472C1.472 0.50472 1.29679 0.575931 1.14673 0.718313L0.719418 1.15145C0.573112 1.29765 0.5 1.47286 0.5 1.6769C0.5 1.88475 0.573193 2.05798 0.719398 2.19654L4.47845 5.9556C4.61709 6.10183 4.79023 6.175 4.99816 6.175C5.20219 6.175 5.37737 6.10185 5.52354 5.9556L9.2826 2.19654C9.42505 2.05407 9.49632 1.88087 9.49632 1.6769C9.49634 1.47666 9.42507 1.30155 9.28262 1.15136Z" fill="#252525"/>
</svg>
