<svg width="84" height="16" viewBox="0 0 84 16" fill="none" xmlns="http://www.w3.org/2000/svg">
<g clip-path="url(#clip0_1822_390)">
<path d="M10.4547 5.99795L14.8916 6.4013L11.6464 9.64645L11.4645 9.82839L11.5068 10.0822L12.3288 15.0142L8.25725 12.5713L8 12.4169L7.74275 12.5713L3.6712 15.0142L4.4932 10.0822L4.5355 9.82839L4.35355 9.64645L1.1084 6.4013L5.54527 5.99795L5.83486 5.97162L5.95518 5.7069L8 1.2083L10.0448 5.7069L10.1651 5.97162L10.4547 5.99795ZM27.0448 5.7069L27.1651 5.97162L27.4547 5.99795L31.8916 6.4013L28.6464 9.64645L28.4645 9.82839L28.5068 10.0822L29.3288 15.0142L25.2572 12.5713L25 12.4169L24.7428 12.5713L20.6712 15.0142L21.4932 10.0822L21.5355 9.82839L21.3536 9.64645L18.1084 6.4013L22.5453 5.99795L22.8349 5.97162L22.9552 5.7069L25 1.2083L27.0448 5.7069ZM44.0448 5.7069L44.1651 5.97162L44.4547 5.99795L48.8916 6.4013L45.6464 9.64645L45.4645 9.82839L45.5068 10.0822L46.3288 15.0142L42.2572 12.5713L42 12.4169L41.7428 12.5713L37.6712 15.0142L38.4932 10.0822L38.5355 9.82839L38.3536 9.64645L35.1084 6.4013L39.5453 5.99795L39.8349 5.97162L39.9552 5.7069L42 1.20831L44.0448 5.7069ZM61.0448 5.7069L61.1651 5.97162L61.4547 5.99795L65.8916 6.4013L62.6464 9.64645L62.4645 9.82839L62.5068 10.0822L63.3288 15.0142L59.2572 12.5713L59 12.4169L58.7428 12.5713L54.6712 15.0142L55.4932 10.0822L55.5355 9.82839L55.3536 9.64645L52.1084 6.4013L56.5453 5.99795L56.8349 5.97162L56.9552 5.7069L59 1.20831L61.0448 5.7069ZM78.0448 5.7069L78.1651 5.97162L78.4547 5.99795L82.8916 6.4013L79.6464 9.64645L79.4645 9.82839L79.5068 10.0822L80.3288 15.0142L76.2572 12.5713L76 12.4169L75.7428 12.5713L71.6712 15.0142L72.4932 10.0822L72.5355 9.82839L72.3536 9.64645L69.1084 6.4013L73.5453 5.99795L73.8349 5.97162L73.9552 5.7069L76 1.20831L78.0448 5.7069Z" stroke="#F26532"/>
<path fill-rule="evenodd" clip-rule="evenodd" d="M8 0H0V6V16H3H13H20H30H37H47H54H64H71H81H84V6V0H76H59H42H25H8ZM8 0L10.5 5.5L16 6L12 10L13 16L8 13L3 16L4 10L0 6L5.5 5.5L8 0ZM25 0L27.5 5.5L33 6L29 10L30 16L25 13L20 16L21 10L17 6L22.5 5.5L25 0ZM42 0L44.5 5.5L50 6L46 10L47 16L42 13L37 16L38 10L34 6L39.5 5.5L42 0ZM59 0L61.5 5.5L67 6L63 10L64 16L59 13L54 16L55 10L51 6L56.5 5.5L59 0ZM76 0L73.5 5.5L68 6L72 10L71 16L76 13L81 16L80 10L84 6L78.5 5.5L76 0Z" fill="#F5F5F5"/>
</g>
<defs>
<clipPath id="clip0_1822_390">
<rect width="84" height="16" fill="white"/>
</clipPath>
</defs>
</svg>
