<!-- Generated by IcoMoon.io -->
<svg version="1.1" xmlns="http://www.w3.org/2000/svg" width="46" height="32" viewBox="0 0 46 32">
<title>icon_arrow</title>
<path d="M42.435 5.263l-1.979-1.98c-0.686-0.651-1.487-0.976-2.401-0.976-0.933 0-1.725 0.326-2.376 0.976l-12.829 12.829-12.829-12.829c-0.651-0.651-1.443-0.976-2.376-0.976-0.915 0-1.716 0.326-2.402 0.976l-1.953 1.98c-0.669 0.668-1.003 1.469-1.003 2.402 0 0.95 0.335 1.742 1.003 2.376l17.184 17.184c0.634 0.668 1.425 1.003 2.376 1.003 0.933 0 1.734-0.334 2.402-1.003l17.184-17.184c0.651-0.651 0.977-1.443 0.977-2.376 0-0.915-0.326-1.716-0.977-2.402z"></path>
</svg>
