<svg width="244" height="310" viewBox="0 0 244 310" fill="none" xmlns="http://www.w3.org/2000/svg">
<mask id="path-1-inside-1_1801_374" fill="white">
<path fill-rule="evenodd" clip-rule="evenodd" d="M244 0H0V292V310L18 292H244V0Z"/>
</mask>
<path fill-rule="evenodd" clip-rule="evenodd" d="M244 0H0V292V310L18 292H244V0Z" fill="white"/>
<path d="M0 0V-1H-1V0H0ZM244 0H245V-1H244V0ZM0 310H-1V312.414L0.707107 310.707L0 310ZM18 292V291H17.5858L17.2929 291.293L18 292ZM244 292V293H245V292H244ZM0 1H244V-1H0V1ZM1 292V0H-1V292H1ZM1 310V292H-1V310H1ZM17.2929 291.293L-0.707107 309.293L0.707107 310.707L18.7071 292.707L17.2929 291.293ZM244 291H18V293H244V291ZM243 0V292H245V0H243Z" fill="#C1C7D0" mask="url(#path-1-inside-1_1801_374)"/>
</svg>
