<svg width="48" height="48" viewBox="0 0 48 48" fill="none" xmlns="http://www.w3.org/2000/svg">
<g id="Icon/phone">
<g id="phone-call">
<path id="Path" fill-rule="evenodd" clip-rule="evenodd" d="M46.456 34.56C46.3248 34.456 36.8 27.5904 34.1856 28.0832C32.9376 28.304 32.224 29.1552 30.792 30.8592C30.5616 31.1344 30.008 31.7936 29.5776 32.2624C28.6726 31.9672 27.7899 31.6079 26.936 31.1872C22.5288 29.0416 18.968 25.4808 16.8224 21.0736C16.4014 20.2199 16.0421 19.3371 15.7472 18.432C16.2176 18 16.8768 17.4464 17.1584 17.2096C18.8544 15.7856 19.7072 15.072 19.928 13.8208C20.3808 11.2288 13.52 1.6384 13.448 1.552C12.8176 0.6515 11.8162 0.0817401 10.72 0C7.9392 0 0 10.2992 0 12.0336C0 12.1344 0.1456 22.3808 12.7808 35.2336C25.6208 47.8544 35.8656 48 35.9664 48C37.7024 48 48 40.0608 48 37.28C47.9192 36.1877 47.3524 35.1893 46.456 34.56Z" fill="#252525"/>
</g>
</g>
</svg>
